<?xml version="1.0" encoding="UTF-8" standalone="no"?>
<!-- Created with Inkscape (http://www.inkscape.org/) -->

<svg
   width="71.172905mm"
   height="28.783951mm"
   viewBox="0 0 71.172905 28.783951"
   version="1.1"
   id="svg1"
   xml:space="preserve"
   inkscape:version="1.3.2 (091e20e, 2023-11-25, custom)"
   xmlns:inkscape="http://www.inkscape.org/namespaces/inkscape"
   xmlns:sodipodi="http://sodipodi.sourceforge.net/DTD/sodipodi-0.dtd"
   xmlns="http://www.w3.org/2000/svg"
   xmlns:svg="http://www.w3.org/2000/svg"><sodipodi:namedview
     id="namedview1"
     pagecolor="#ffffff"
     bordercolor="#000000"
     borderopacity="0.25"
     inkscape:showpageshadow="2"
     inkscape:pageopacity="0.0"
     inkscape:pagecheckerboard="0"
     inkscape:deskcolor="#d1d1d1"
     inkscape:document-units="mm"
     inkscape:zoom="1.2825338"
     inkscape:cx="424.55022"
     inkscape:cy="566.45682"
     inkscape:window-width="1366"
     inkscape:window-height="705"
     inkscape:window-x="-8"
     inkscape:window-y="-8"
     inkscape:window-maximized="1"
     inkscape:current-layer="layer1" /><defs
     id="defs1" /><g
     inkscape:label="Layer 1"
     inkscape:groupmode="layer"
     id="layer1"
     transform="translate(-67.828348,-134.49665)"><path
       style="fill:#484546;stroke:none"
       d="m 128.41793,134.87396 1.32292,-0.26459 v 1.05834 c 0.3307,-1.0092 -0.60728,-1.6007 -1.32292,-0.79375 m -0.52917,-0.26459 c -4.62841,3.59714 -8.69345,8.63473 -12.6753,12.96459 -2.28142,2.48081 -3.9487,4.73781 -7.16845,6.08541 l -0.26458,-0.26458 0.79375,-2.11667 -2.11667,1.85209 1.05834,-0.52917 v 1.32292 l 3.70416,-1.32292 -0.26458,1.85208 2.11667,-0.26458 c 0.18297,1.42512 3.47492,-0.82028 4.49791,-1.05833 -0.37522,2.56967 3.61966,0.96899 5.02709,0.688 5.32264,-1.06269 11.00167,-0.7241 16.40416,-2.01092 v -0.26458 l -15.34583,1.60771 -6.08542,0.77354 1.5875,-2.11667 -5.29166,2.64583 4.49791,-4.23333 -7.14375,3.70417 c 1.92706,-4.04949 7.16865,-5.17068 9.78959,-8.73125 l -7.14375,5.02708 10.7193,-11.90523 3.30361,-3.70519 m -34.924998,13.75834 c 2.351849,-2.35185 6.102595,-4.94151 7.143748,-8.20209 -1.811794,0.36056 -3.139547,1.80633 -4.496893,2.98208 -3.447915,2.98661 -5.888704,6.84921 -10.055189,8.92417 l 7.520619,-8.12654 4.650215,-5.10262 c -3.72834,0.96912 -6.05063,6.77475 -9.789584,6.87916 v 0.26459 l 0.79375,0.26458 c -1.880142,1.88534 -3.371772,6.01977 -6.085417,6.08542 l 0.79375,-2.64584 -1.852083,2.38125 -3.96875,2.38125 c 0.744973,-3.74346 5.844691,-8.31956 9.019516,-10.19789 1.065992,-0.63068 4.450485,-2.11874 4.010806,-3.75132 -0.4449,-1.65197 -4.745883,-0.66744 -5.886572,-0.49059 -4.199812,0.65114 -7.896718,2.18042 -11.90625,3.47981 -1.787475,0.57927 -4.323466,1.39919 -5.027084,3.28708 l 3.704167,0.52916 v -0.26458 l -3.439583,-0.52917 c 2.070455,-1.70138 4.659736,-2.54596 7.14375,-3.45367 4.72953,-1.72825 10.234213,-3.88732 15.345834,-2.63174 l -4.497917,3.43958 2.116667,-2.91042 c -1.68808,0.90395 -2.500233,2.87389 -4.013665,4.03408 -3.704787,2.84009 -7.999116,4.19599 -9.480086,9.19509 l 3.439584,-3.96875 c 0.484776,-1.71172 3.006578,-2.90714 4.497916,-3.70417 -1.668599,1.91604 -3.711985,3.88717 -4.991764,6.08542 -1.766323,3.03397 1.50941,1.73926 2.874077,0.75639 0.710436,-0.51168 1.395667,-1.05604 2.117687,-1.55014 l -0.264583,0.79375 2.910417,-0.26458 -0.529167,1.05833 2.116667,-0.52917 c -0.140843,0.60002 -0.540334,1.91858 0.348695,2.1624 2.800057,0.76792 7.383531,-3.92791 9.679137,0.23029 0.97873,1.77284 -1.076093,3.63703 -2.354915,4.58978 -3.369257,2.51018 -7.578004,3.59388 -11.641667,2.54253 v 0.26459 c 4.217491,1.77963 10.485471,-0.48355 13.465984,-3.70805 2.574829,-2.78561 0.732667,-5.91641 -2.882651,-5.80552 -1.450432,0.0445 -2.811379,0.57326 -4.233333,0.78232 l 1.058333,-1.32292 -3.175,2.11667 c 0.551971,-4.95571 8.47475,-6.61042 12.435417,-7.14375 -1.074589,1.77769 -0.355748,2.61763 1.587505,2.91041 v 0.26459 l -5.027088,2.38125 v 0.26458 l 5.556248,-2.47046 4.23334,-0.17537 c -1.73763,1.96536 -6.915623,5.64474 -6.614588,8.46666 l 1.058338,-0.52916 v -0.26459 l -0.793755,0.26459 0.264584,-0.79375 0.793751,0.26458 3.175,-3.70417 c 0.89986,0.47488 1.38852,0.0445 1.85208,-0.79375 l -1.05833,0.52917 4.23333,-4.23333 -1.5875,0.52916 10.58701,-9.80285 5.02341,-5.01381 c -3.28303,-0.94324 -8.12253,1.74322 -10.84792,3.4061 -6.29818,3.84281 -11.55507,8.34173 -19.049998,9.2939 m 29.368748,-12.7 c -1.12517,2.02409 -3.35873,3.50816 -5.03749,5.07302 -4.04449,3.77006 -8.54055,9.74364 -14.27709,9.74364 0.74514,-1.21832 2.92357,-1.57126 3.34812,-2.94083 0.52592,-1.69658 -4.42229,-0.77939 -5.2002,-0.76333 1.65566,-1.81158 4.0318,-2.9692 6.08541,-4.27396 4.88666,-3.10475 9.35747,-5.65714 15.08125,-6.83854 m -25.135415,3.70416 v 0.26459 l -11.641667,11.64166 c 1.148507,-3.59801 5.014772,-6.27984 7.672917,-8.75493 1.259833,-1.17307 2.357814,-2.46925 3.96875,-3.15132 m 2.645834,1.05834 c -1.697941,3.02457 -6.104503,8.10295 -9.525001,8.99583 v -0.26458 c 3.154489,-2.75667 5.556287,-6.98563 9.525001,-8.73125 m -11.906251,1.32291 0.264584,0.26459 -0.264584,-0.26459 m 34.395832,2.11667 0.26459,0.26458 -0.26459,-0.26458 m -1.05833,1.32292 0.79375,-0.79375 -0.79375,0.79375 m -38.364585,1.05833 -0.264584,0.26458 0.264584,-0.26458 m -10.583334,0.52917 v 0.26458 h 1.058333 l -1.058333,-0.26458 m 33.866669,0.26458 c -0.63628,1.30193 -5.74026,5.09601 -6.691756,2.30775 -0.93625,-2.74358 5.317486,-2.63403 6.691756,-2.30775 m -13.229168,1.32292 -0.264584,0.26458 0.264584,-0.26458 m -2.116667,1.32291 -2.116667,1.5875 2.116667,-1.5875 m 3.439583,0.79375 v 0.26459 h 1.852084 l -1.852084,-0.26459 m 19.579172,-0.26458 -0.26459,0.26458 0.26459,-0.26458 m -6.61459,0.26458 v 0.79375 h -0.26458 l 0.26458,-0.79375 m -18.785415,0.26459 c -0.575833,1.03551 -1.220597,1.40262 -2.38125,1.5875 v -0.26459 l 2.38125,-1.32291 m 17.727085,0.52916 v 0.52917 h -0.52917 l 0.52917,-0.52917 m 0.52917,0 -0.26459,0.26459 0.26459,-0.26459 m -24.870839,0.26459 -0.264583,0.26458 0.264583,-0.26458 m 23.812499,0.52916 -4.23333,4.49792 c 0.82655,-1.78298 2.48629,-3.59152 4.23333,-4.49792 m 2.11667,0.26459 -0.26458,0.26458 0.26458,-0.26458 m -20.637502,0.26458 -0.264583,0.26458 0.264583,-0.26458 m 30.691672,0.26458 -0.26459,0.26459 0.26459,-0.26459 m -34.131255,1.5875 0.264583,0.26459 0.529167,-0.79375 -0.79375,0.52916 m 29.633335,-0.52916 -0.26458,0.26458 0.26458,-0.26458 m -29.897919,0.79375 0.264584,0.26458 -0.264584,-0.26458 m -0.529166,1.05833 -0.264584,1.32292 h 0.264584 v -1.32292 m 17.991665,1.32292 0.26459,0.26458 -0.26459,-0.26458 m -18.520832,0.26458 -0.264583,3.96875 h 0.264583 v -3.96875 m 17.991672,0.26458 -0.26459,0.26459 0.26459,-0.26459 m -17.991672,3.96875 0.529167,0.52917 z"
       id="path1" /></g></svg>
